<svg xmlns="http://www.w3.org/2000/svg">
  <defs>
    <symbol id="icon-utensils" viewBox="0 0 24 24">
      <path d="M6 2h2v8a2 2 0 0 1-4 0V2h2v8h0z"/>
      <path d="M11 2h2v8a2 2 0 0 1-4 0V2h2z"/>
      <path d="M16 2h2v20h-2z"/>
      <path d="M20 2c1.657 0 3 1.343 3 3v4c0 1.657-1.343 3-3 3V2z"/>
    </symbol>

    <symbol id="icon-burger" viewBox="0 0 24 24">
      <path d="M4 11c0-4 3.582-7 8-7s8 3 8 7H4z"/>
      <path d="M3 13h18a2 2 0 0 1-2 2H5a2 2 0 0 1-2-2z"/>
      <path d="M4 17h16v3H4z"/>
      <circle cx="8" cy="9" r="0.6"/>
      <circle cx="11" cy="8" r="0.6"/>
      <circle cx="14" cy="9" r="0.6"/>
    </symbol>

    <symbol id="icon-taco" viewBox="0 0 24 24">
      <path d="M3 14a9 9 0 0 1 18 0H3z"/>
      <path d="M5 14h14a2 2 0 0 1-2 3H7a2 2 0 0 1-2-3z"/>
      <circle cx="9" cy="12" r="0.7"/>
      <circle cx="12" cy="11" r="0.7"/>
      <circle cx="15" cy="12" r="0.7"/>
    </symbol>

    <symbol id="icon-location" viewBox="0 0 24 24">
      <path d="M12 2a7 7 0 0 0-7 7c0 5.25 7 13 7 13s7-7.75 7-13a7 7 0 0 0-7-7z"/>
      <circle cx="12" cy="9" r="2.5"/>
    </symbol>

    <symbol id="icon-menu" viewBox="0 0 24 24">
      <path d="M5 3h14a2 2 0 0 1 2 2v14a2 2 0 0 1-2 2H5a2 2 0 0 1-2-2V5a2 2 0 0 1 2-2z"/>
      <path d="M7 8h10v2H7z"/>
      <path d="M7 12h10v2H7z"/>
      <path d="M7 16h6v2H7z"/>
    </symbol>
  </defs>
</svg>
